<svg width="121" height="216" viewBox="0 0 121 216" fill="none" xmlns="http://www.w3.org/2000/svg">
<path d="M17.4287 192.705C17.0872 192.705 16.8377 192.626 16.6801 192.469C16.5224 192.311 16.4436 192.062 16.4436 191.72V185.534H10.6909C10.3494 185.534 10.0999 185.455 9.94228 185.298C9.78468 185.14 9.70587 184.89 9.70587 184.549V182.106C9.70587 181.738 9.78468 181.489 9.94228 181.357C10.0999 181.2 10.3494 181.121 10.6909 181.121H16.4436V174.935C16.4436 174.567 16.5224 174.318 16.6801 174.186C16.8377 174.029 17.0872 173.95 17.4287 173.95H20.3444C20.7122 173.95 20.9617 174.029 21.0931 174.186C21.2507 174.318 21.3295 174.567 21.3295 174.935V181.121H27.0822C27.45 181.121 27.6995 181.2 27.8309 181.357C27.9885 181.489 28.0673 181.738 28.0673 182.106V184.549C28.0673 184.89 27.9885 185.14 27.8309 185.298C27.6995 185.455 27.45 185.534 27.0822 185.534H21.3295V191.72C21.3295 192.062 21.2507 192.311 21.0931 192.469C20.9617 192.626 20.7122 192.705 20.3444 192.705H17.4287ZM42.092 197C41.7505 197 41.5009 196.921 41.3433 196.764C41.1857 196.606 41.1069 196.356 41.1069 196.015V175.447L35.7088 177.22C35.1835 177.404 34.8288 177.496 34.645 177.496C34.2772 177.496 34.0933 177.246 34.0933 176.747V174.147C34.0933 173.779 34.1459 173.503 34.2509 173.319C34.3823 173.135 34.6187 172.965 34.9602 172.807L40.9099 170.088C41.4615 169.826 42.0526 169.694 42.683 169.694H45.9534C46.3211 169.694 46.5707 169.773 46.702 169.931C46.8596 170.062 46.9384 170.312 46.9384 170.679V196.015C46.9384 196.356 46.8596 196.606 46.702 196.764C46.5707 196.921 46.3211 197 45.9534 197H42.092ZM63.3667 197.591C62.3159 197.591 61.1995 197.473 60.0175 197.236C58.8617 197.026 57.7847 196.724 56.7865 196.33C56.445 196.199 56.2086 196.054 56.0773 195.897C55.9722 195.713 55.9197 195.411 55.9197 194.99V192.666C55.9197 192.062 56.1429 191.76 56.5895 191.76C56.6683 191.76 56.7471 191.773 56.8259 191.799C56.931 191.825 57.0886 191.865 57.2987 191.917C59.8993 192.653 61.8562 193.02 63.1696 193.02C64.8508 193.02 66.1248 192.666 66.9917 191.957C67.8848 191.221 68.3313 190.157 68.3313 188.765C68.3313 187.53 67.9242 186.624 67.1099 186.046C66.2956 185.442 65.0347 185.14 63.3273 185.14C62.6443 185.14 62.0664 185.166 61.5936 185.219C61.147 185.271 60.7661 185.298 60.4509 185.298C59.9255 185.298 59.6629 184.982 59.6629 184.352V182.933C59.6629 182.461 59.7023 182.106 59.7811 181.87C59.8861 181.633 60.0831 181.357 60.3721 181.042L66.7158 174.186H57.2593C56.9178 174.186 56.6683 174.107 56.5107 173.95C56.3531 173.792 56.2743 173.543 56.2743 173.201V170.679C56.2743 170.312 56.3531 170.062 56.5107 169.931C56.6683 169.773 56.9178 169.694 57.2593 169.694H71.9169C72.2847 169.694 72.5342 169.773 72.6656 169.931C72.8232 170.062 72.902 170.312 72.902 170.679V172.846C72.902 173.319 72.8494 173.674 72.7444 173.91C72.6656 174.147 72.4817 174.423 72.1927 174.738L65.9672 181.082C68.4889 181.213 70.4722 181.962 71.9169 183.327C73.3617 184.693 74.084 186.493 74.084 188.726C74.084 190.538 73.6243 192.114 72.705 193.454C71.8119 194.793 70.551 195.818 68.9224 196.527C67.32 197.236 65.4681 197.591 63.3667 197.591ZM87.4389 197C86.9661 197 86.7297 196.829 86.7297 196.488C86.7297 196.304 86.8479 195.976 87.0843 195.503L99.1413 170.679C99.3515 170.259 99.5485 169.996 99.7324 169.891C99.9163 169.76 100.179 169.694 100.52 169.694H102.806C103.279 169.694 103.515 169.865 103.515 170.207C103.515 170.39 103.397 170.719 103.16 171.192L91.1033 196.015C90.8932 196.435 90.6961 196.711 90.5123 196.842C90.3284 196.947 90.0657 197 89.7242 197H87.4389ZM105.564 197.315C103.41 197.315 101.729 196.606 100.52 195.188C99.3384 193.769 98.7473 191.786 98.7473 189.238C98.7473 186.637 99.3384 184.628 100.52 183.209C101.729 181.791 103.41 181.082 105.564 181.082C107.718 181.082 109.386 181.791 110.568 183.209C111.776 184.628 112.38 186.611 112.38 189.159C112.38 191.76 111.776 193.769 110.568 195.188C109.386 196.606 107.718 197.315 105.564 197.315ZM105.564 194.005C107.271 194.005 108.125 192.416 108.125 189.238C108.125 187.583 107.915 186.361 107.495 185.573C107.074 184.785 106.431 184.391 105.564 184.391C103.856 184.391 103.003 185.981 103.003 189.159C103.003 190.814 103.213 192.035 103.633 192.823C104.053 193.611 104.697 194.005 105.564 194.005ZM84.6808 185.613C82.5268 185.613 80.8456 184.904 79.6373 183.485C78.4552 182.067 77.8642 180.083 77.8642 177.535C77.8642 174.935 78.4552 172.925 79.6373 171.507C80.8456 170.088 82.5268 169.379 84.6808 169.379C86.8347 169.379 88.5028 170.088 89.6848 171.507C90.8932 172.925 91.4973 174.909 91.4973 177.457C91.4973 180.057 90.8932 182.067 89.6848 183.485C88.5028 184.904 86.8347 185.613 84.6808 185.613ZM84.6808 182.303C86.3882 182.303 87.2419 180.714 87.2419 177.535C87.2419 175.88 87.0318 174.659 86.6115 173.871C86.1912 173.083 85.5476 172.689 84.6808 172.689C82.9733 172.689 82.1196 174.278 82.1196 177.457C82.1196 179.111 82.3298 180.333 82.7501 181.121C83.1703 181.909 83.8139 182.303 84.6808 182.303Z" fill="white"/>
<path d="M76.9007 31.2303L45.5442 0.369116C45.3031 0.132523 44.9789 0 44.6413 0C44.3037 0 43.9795 0.132523 43.7384 0.369116L12.3948 31.2303C12.2091 31.4094 12.0814 31.64 12.028 31.8925C11.9746 32.145 11.998 32.4077 12.0952 32.6468C12.1923 32.8858 12.3588 33.0902 12.5732 33.2336C12.7875 33.377 13.0399 33.4528 13.2977 33.4512H25.8738V136.339C25.8738 136.681 26.0097 137.01 26.2516 137.252C26.4935 137.494 26.8216 137.63 27.1637 137.63H62.0931C62.4352 137.63 62.7633 137.494 63.0052 137.252C63.2471 137.01 63.383 136.681 63.383 136.339V33.4125H75.9462C76.2005 33.4167 76.4503 33.3455 76.6643 33.2079C76.8783 33.0704 77.0468 32.8725 77.1488 32.6393C77.2508 32.4061 77.2817 32.148 77.2375 31.8973C77.1934 31.6466 77.0762 31.4145 76.9007 31.2303Z" fill="white"/>
<mask id="mask0_881_12000" style="mask-type:alpha" maskUnits="userSpaceOnUse" x="12" y="0" width="66" height="138">
<path d="M76.9007 31.2303L45.5442 0.369116C45.3031 0.132523 44.9789 0 44.6413 0C44.3037 0 43.9795 0.132523 43.7384 0.369116L12.3948 31.2303C12.2091 31.4094 12.0814 31.64 12.028 31.8925C11.9746 32.145 11.998 32.4077 12.0952 32.6468C12.1923 32.8858 12.3588 33.0902 12.5732 33.2336C12.7875 33.377 13.0399 33.4528 13.2977 33.4512H25.8738V136.339C25.8738 136.681 26.0097 137.01 26.2516 137.252C26.4935 137.494 26.8216 137.63 27.1637 137.63H62.0931C62.4352 137.63 62.7633 137.494 63.0052 137.252C63.2471 137.01 63.383 136.681 63.383 136.339V33.4125H75.9462C76.2005 33.4167 76.4503 33.3455 76.6643 33.2079C76.8783 33.0704 77.0468 32.8725 77.1488 32.6393C77.2508 32.4061 77.2817 32.148 77.2375 31.8973C77.1934 31.6466 77.0762 31.4145 76.9007 31.2303Z" fill="white"/>
</mask>
<g mask="url(#mask0_881_12000)">
<path d="M115.962 74.2522L81.2527 40.0638C80.4327 39.254 79.3272 38.8 78.1754 38.8C77.0236 38.8 75.9181 39.254 75.0981 40.0638L40.3893 74.2522C39.7713 74.8647 39.3488 75.647 39.1753 76.5C39.0017 77.3531 39.085 78.2385 39.4146 79.0441C39.7441 79.8497 40.3051 80.5393 41.0264 81.0255C41.7477 81.5117 42.597 81.7726 43.4666 81.7752H53.4455V194.152C53.4455 195.318 53.9083 196.437 54.7322 197.261C55.556 198.086 56.6734 198.549 57.8385 198.549H98.5123C99.6774 198.549 100.795 198.086 101.619 197.261C102.442 196.437 102.905 195.318 102.905 194.152V84.4652C102.905 83.7508 103.188 83.0654 103.692 82.5592C104.195 82.0529 104.879 81.767 105.592 81.7641H112.884C113.752 81.7593 114.598 81.4975 115.317 81.0119C116.036 80.5262 116.595 79.8384 116.924 79.0351C117.253 78.2318 117.337 77.3489 117.166 76.4977C116.995 75.6466 116.576 74.8653 115.962 74.2522Z" fill="#C6CED9"/>
</g>
<path d="M109.135 75.5432L77.791 44.6691C77.5498 44.4325 77.2257 44.3 76.8881 44.3C76.5504 44.3 76.2263 44.4325 75.9852 44.6691L44.6286 75.5432C44.4475 75.723 44.3237 75.9526 44.2729 76.2029C44.2221 76.4531 44.2466 76.7128 44.3432 76.9492C44.4399 77.1855 44.6043 77.3879 44.8159 77.5306C45.0274 77.6734 45.2764 77.7502 45.5315 77.7512H58.1077L58.4498 136.305C58.4498 136.648 58.5857 136.976 58.8276 137.218C59.0695 137.46 59.3975 137.596 59.7396 137.596H94.682C95.0241 137.596 95.3521 137.46 95.594 137.218C95.8359 136.976 95.9718 136.648 95.9718 136.305L95.6297 77.7512H108.206C108.463 77.7554 108.716 77.6823 108.931 77.5415C109.147 77.4008 109.315 77.1987 109.415 76.9612C109.515 76.7238 109.542 76.4619 109.492 76.2092C109.442 75.9565 109.317 75.7246 109.135 75.5432Z" fill="#0096D6"/>
</svg>
