<svg width="116" height="30" viewBox="0 0 116 30" fill="none" xmlns="http://www.w3.org/2000/svg">
<path d="M45.7639 23.0485C41.0692 25.0757 36.0011 26.0894 31.3597 26.0894C24.5311 26.0894 17.8625 24.1688 12.4742 20.9679C11.9941 20.7011 11.674 21.1813 12.0474 21.5547C17.0622 26.0894 23.6241 28.8635 30.9329 28.8635C36.1078 28.8635 42.2429 27.1563 46.3508 24.0088C47.0443 23.5286 46.5108 22.7817 45.7639 23.0485Z" fill="#232F3F"/>
<path d="M43.0965 21.2869C42.7231 21.5536 42.7764 21.9271 43.2032 21.8737C44.537 21.7137 47.5778 21.3402 48.1113 22.0338C48.6448 22.7273 47.5245 25.6615 46.991 26.9419C46.831 27.3153 47.151 27.4753 47.5245 27.2086C49.8185 25.288 50.352 21.2335 49.9252 20.6467C49.445 20.0598 45.4972 19.5797 43.0965 21.2869Z" fill="#232F3F"/>
<path d="M51.579 16.5388C50.2986 15.8452 48.8049 15.6318 47.4178 15.6852L51.2056 10.3503C51.579 9.87017 51.7924 9.55008 51.7924 9.33668V7.94961C51.7924 7.73622 51.579 7.57617 51.3656 7.57617H44.1102C43.8434 7.57617 43.6834 7.73622 43.6834 7.94961V9.60343C43.6834 9.81682 43.8968 9.97687 44.1102 9.97687H47.9513L43.5767 16.2187C43.3099 16.5921 43.3099 17.0723 43.3099 17.339V18.9928C43.3099 19.2062 43.5767 19.5263 43.8434 19.3663C46.3508 18.0325 49.3384 18.1926 51.579 19.3663C51.8458 19.5263 52.1125 19.2596 52.1125 18.9928V17.2323C51.9525 16.9656 51.8458 16.6988 51.579 16.5388Z" fill="#232F3F"/>
<path d="M14.2347 19.686H16.4753C16.742 19.686 16.9021 19.526 16.9021 19.2592V13.1775C16.9021 11.8438 16.7954 9.97654 18.4492 9.97654C20.0497 9.97654 19.8363 11.8971 19.8363 13.1775V19.3126C19.8363 19.526 19.9963 19.7394 20.2631 19.7394H22.5037C22.7705 19.7394 22.9305 19.5793 22.9305 19.3126V13.1775C22.9305 12.5373 22.8772 11.5237 23.1439 10.9902C23.4107 10.4033 23.9441 10.0299 24.4776 10.0299C25.1178 10.0299 25.6513 10.2433 25.8114 10.9902C25.9181 11.417 25.9181 12.644 25.9181 13.1775V19.3126C25.9181 19.526 26.0781 19.7394 26.3448 19.7394H28.5855C28.8522 19.7394 29.0123 19.526 29.0123 19.3126V12.0038C29.0123 10.7768 29.1723 9.33636 28.4254 8.37608C27.7853 7.52249 26.7183 7.0957 25.8114 7.0957C24.4776 7.0957 23.2506 7.78924 22.7171 9.28301C22.0769 7.78924 21.2234 7.0957 19.7829 7.0957C18.3959 7.0957 17.3822 7.78924 16.7954 9.28301H16.742V7.78924C16.742 7.57584 16.5287 7.4158 16.3153 7.36245H14.2347C13.9679 7.36245 13.8079 7.57584 13.8079 7.78924V19.3126C13.8079 19.526 14.0213 19.686 14.2347 19.686Z" fill="#232F3F"/>
<path d="M57.9274 7.0957C54.6198 7.0957 52.8059 9.92319 52.8059 13.5509C52.8059 17.1786 54.6198 20.0595 57.9274 20.0595C61.1283 20.0595 63.1022 17.232 63.1022 13.6576C63.1022 9.97654 61.2884 7.0957 57.9274 7.0957ZM57.9274 17.6588C56.1669 17.6588 56.1669 14.6179 56.1669 13.2308C56.1669 11.7904 56.2736 9.4964 57.9274 9.4964C58.6743 9.4964 59.1544 9.81649 59.4212 10.6167C59.6879 11.577 59.7413 12.6973 59.7413 13.711C59.7413 15.2047 59.6879 17.6588 57.9274 17.6588Z" fill="#232F3F"/>
<path d="M73.5053 8.42942C72.8651 7.46915 71.8515 7.0957 70.8379 7.0957C69.2374 7.0957 68.3305 7.84259 67.6903 9.44305H67.637V7.68254C67.5836 7.52249 67.4236 7.36245 67.2102 7.36245H65.0762C64.8095 7.36245 64.6494 7.52249 64.5961 7.73589V19.3126C64.5961 19.526 64.7561 19.7394 65.0229 19.7394H67.3169C67.5836 19.7394 67.797 19.5793 67.797 19.3126V13.0708C67.797 12.2705 67.8504 11.577 68.1704 10.8835C68.4372 10.2966 68.9707 9.92319 69.5042 9.92319C71.1046 9.92319 70.9446 11.7904 70.9446 13.0174V19.3126C70.9979 19.526 71.158 19.686 71.3714 19.686H73.6654C73.8788 19.686 74.0922 19.526 74.1455 19.3126V12.0571C74.0922 10.9368 74.0922 9.3897 73.5053 8.42942Z" fill="#232F3F"/>
<path d="M37.6016 11.8984C36.3212 12.0585 34.6141 12.1118 33.387 12.6453C31.9466 13.2322 30.9863 14.4592 30.9863 16.273C30.9863 18.567 32.4267 19.7407 34.3473 19.7407C35.9478 19.7407 36.8014 19.3673 38.0284 18.1403C38.4552 18.7271 38.5619 18.9938 39.3088 19.634C39.4688 19.7407 39.6822 19.7407 39.8422 19.5807C40.269 19.2072 41.1226 18.5137 41.5494 18.0869C41.7095 17.9269 41.7095 17.6601 41.5494 17.5001C41.1226 16.9132 40.6958 16.4864 40.6958 15.4728V12.0051C40.6958 10.5647 40.8025 9.17765 39.7355 8.21737C38.882 7.41713 37.4415 7.15039 36.3746 7.15039C34.294 7.15039 31.8933 7.95062 31.4131 10.5114C31.3598 10.7781 31.5732 10.8848 31.7332 10.9382L33.8672 11.1516C34.0806 11.1516 34.2406 10.9382 34.294 10.7781C34.5074 9.87118 35.2009 9.44439 36.0545 9.44439C36.4813 9.44439 37.0148 9.60444 37.3348 10.0312C37.6549 10.458 37.6016 11.0982 37.6016 11.6317V11.8984ZM37.2281 16.4864C36.8547 17.0733 36.3212 17.5001 35.681 17.5001C34.8274 17.5001 34.294 16.8599 34.294 15.8996C34.294 14.0324 36.0011 13.659 37.6016 13.659V14.1391C37.6016 15.046 37.6549 15.7396 37.2281 16.4864Z" fill="#232F3F"/>
<path d="M12.2075 17.4986C11.7807 16.9118 11.3539 16.485 11.3539 15.4714V12.0037C11.3539 10.5633 11.4606 9.17621 10.3936 8.21594C9.54005 7.4157 8.15297 7.14896 7.03265 7.14896C4.89869 7.09561 2.55134 7.89584 2.01786 10.4566C1.96451 10.7233 2.1779 10.8834 2.33795 10.8834L4.4719 11.1501C4.6853 11.1501 4.84535 10.9367 4.89869 10.7233C5.11209 9.8164 5.80562 9.38961 6.65921 9.38961C7.086 9.38961 7.61949 9.54966 7.88623 9.97645C8.20632 10.4032 8.15297 11.0434 8.15297 11.5769V11.897C6.92595 12.0571 5.21879 12.1104 3.99176 12.6439C2.60469 13.2307 1.59106 14.4578 1.59106 16.2716C1.59106 18.5656 3.03148 19.7393 4.95204 19.7393C6.55251 19.7393 7.40609 19.3658 8.63311 18.1388C9.05991 18.7257 9.1666 19.0458 9.91349 19.6326C10.0735 19.7393 10.2869 19.7393 10.447 19.5792C10.8738 19.1525 11.674 18.5123 12.1541 18.0855C12.3675 17.9254 12.3142 17.712 12.2075 17.4986ZM8.25967 14.1377C8.25967 14.9912 8.31302 15.6848 7.83288 16.485C7.45944 17.1252 6.92595 17.552 6.23242 17.552C5.37883 17.552 4.84535 16.9118 4.84535 15.9515C4.84535 14.0843 6.55251 13.7109 8.15297 13.7109L8.25967 14.1377Z" fill="#232F3F"/>
<path d="M82.8415 19.9546C81.6678 19.9546 80.7609 19.6345 80.0673 18.9943C79.3738 18.3542 79.0537 17.4472 79.0537 16.3269C79.0537 15.1532 79.4805 14.1929 80.3341 13.4994C81.1877 12.8059 82.308 12.4324 83.7484 12.4324C84.6553 12.4324 85.669 12.5925 86.7893 12.8592V11.2588C86.7893 10.4052 86.5759 9.76499 86.2025 9.39155C85.829 9.01811 85.1355 8.85806 84.1752 8.85806C83.0549 8.85806 81.9879 9.01811 80.9209 9.3382C80.5475 9.4449 80.3341 9.49825 80.2274 9.49825C80.014 9.49825 79.9606 9.3382 79.9606 9.07145V8.43127C79.9606 8.21787 80.014 8.05783 80.0673 7.95113C80.1207 7.84443 80.2807 7.79108 80.4408 7.68438C80.9209 7.47099 81.5611 7.25759 82.308 7.1509C83.1082 6.99085 83.8551 6.9375 84.602 6.9375C86.1491 6.9375 87.2694 7.25759 88.0163 7.89778C88.7632 8.53797 89.0833 9.49825 89.0833 10.832V19.101C89.0833 19.4211 88.9233 19.5812 88.6032 19.5812H87.5362C87.2161 19.5812 87.056 19.4211 87.0027 19.101L86.896 18.3008C86.3092 18.7809 85.669 19.2077 84.9754 19.4745C84.2286 19.7946 83.535 19.9546 82.8415 19.9546ZM83.4283 18.1408C83.9618 18.1408 84.4953 18.0341 85.0821 17.8207C85.669 17.6073 86.2025 17.2872 86.736 16.9137V14.4597C85.8824 14.2463 85.0288 14.1396 84.1752 14.1396C82.3613 14.1396 81.4544 14.8331 81.4544 16.2736C81.4544 16.9137 81.6145 17.3405 81.9879 17.714C82.308 17.9807 82.7881 18.1408 83.4283 18.1408Z" fill="#232F3F"/>
<path d="M96.2854 19.9009C95.2185 19.9009 94.3115 19.6342 93.5113 19.1007C92.7111 18.5672 92.1242 17.8203 91.6974 16.8601C91.2706 15.8998 91.1106 14.7795 91.1106 13.5524C91.1106 12.2187 91.324 11.045 91.7508 10.0848C92.1776 9.07113 92.8178 8.32424 93.618 7.79075C94.4182 7.25727 95.3252 6.99052 96.3388 6.99052C97.7259 6.99052 98.9529 7.41731 100.073 8.32424V2.18912C100.073 1.86903 100.233 1.70898 100.553 1.70898H101.994C102.314 1.70898 102.474 1.86903 102.474 2.18912V19.1541C102.474 19.4742 102.314 19.6342 101.994 19.6342H100.927C100.767 19.6342 100.66 19.5809 100.553 19.5275C100.447 19.4742 100.393 19.3141 100.34 19.1541L100.127 18.3538C99.5931 18.834 99.0062 19.2074 98.3127 19.4742C97.6725 19.7942 97.0323 19.9009 96.2854 19.9009ZM97.0323 17.9804C98.0459 17.9804 99.0596 17.6069 100.073 16.8601V9.97806C99.5931 9.60462 99.0596 9.33787 98.5261 9.17782C98.0459 9.01778 97.4591 8.91108 96.8723 8.91108C94.685 8.91108 93.5646 10.4048 93.5646 13.4457C93.618 16.4866 94.7383 17.9804 97.0323 17.9804Z" fill="#232F3F"/>
<path d="M108.662 20.008C107.329 20.008 106.102 19.7946 104.981 19.3144C104.768 19.2077 104.661 19.1544 104.555 19.0477C104.501 18.941 104.448 18.7809 104.448 18.5676V17.9274C104.448 17.6606 104.555 17.5006 104.715 17.5006C104.821 17.5006 105.035 17.5539 105.301 17.6606C106.368 17.9807 107.489 18.1941 108.609 18.1941C109.409 18.1941 109.996 18.0341 110.423 17.714C110.85 17.3939 111.063 16.9671 111.063 16.3802C111.063 16.0068 110.956 15.6867 110.69 15.42C110.423 15.1532 109.996 14.9398 109.356 14.6731L107.275 13.8729C105.462 13.2327 104.608 12.059 104.608 10.4585C104.608 9.39155 105.035 8.53797 105.835 7.89778C106.635 7.25759 107.756 6.9375 109.036 6.9375C110.103 6.9375 111.116 7.09755 112.13 7.47099C112.344 7.52434 112.45 7.63104 112.557 7.73773C112.664 7.84443 112.664 8.00448 112.664 8.21787V8.85806C112.664 9.1248 112.557 9.28485 112.344 9.28485C112.237 9.28485 112.023 9.2315 111.81 9.17815C110.956 8.91141 110.103 8.80471 109.196 8.80471C107.649 8.80471 106.849 9.3382 106.849 10.4052C106.849 10.832 106.955 11.1521 107.222 11.4188C107.489 11.6855 107.969 11.9523 108.769 12.219L110.636 12.9659C111.597 13.3394 112.29 13.7662 112.717 14.2996C113.144 14.7798 113.357 15.4733 113.357 16.2736C113.357 17.3939 112.93 18.3542 112.077 18.9943C111.223 19.6879 110.103 20.008 108.662 20.008Z" fill="#232F3F"/>
</svg>
